# xmcd
#
# Track frame offsets: 
#        150
#        12697
#        26207
#        40952
#        53275
#        68062
#        79807
#        91605
#        103290
#        115095
#        127145
#        139805
#        152107
#        164372
#        176245
#        188325
#        200645
#        224285
#        237762
#        249072
#        262750
#        274825
#        286777
#        298205
#        310572
#        323115
#
# Disc length: 4458 seconds
#
# Revision: 2
# Processed by: cddbd v1.4PL0 Copyright (c) Steve Scherf et al.
# Submitted via: ExactAudioCopy v0.90b3
#
DISCID=7011681a
DTITLE=Wilf Carter - Montana Slim - Disc 6
DYEAR=1900
DGENRE=Country
TTITLE0=My Yodelling Days Are Through - 1938
TTITLE1=Headin' For That Land Of Gold - 1938
TTITLE2=Wilf Carter Blues - 1938
TTITLE3=Golden Lariat - 1938
TTITLE4=A Cowboy Who Never Returned - 1938
TTITLE5=When It's Twilight Over Texas - 1938
TTITLE6=My Only Memories Of You - 1938
TTITLE7=When I Say Hello Go The Rockies - 1938
TTITLE8=When I Bid The Prairie Goodbye - 1938
TTITLE9=My Dreams Came True - 1938
TTITLE10=You Left Your Brand On My Heart - 1938
TTITLE11=Lodelling Love Call - 1938
TTITLE12=It Makes No Difference Now - 1938
TTITLE13=What Difference Does It Make? - 1938
TTITLE14=Answer To It Makes No Difference Now - 1938
TTITLE15=Roll Along Kentucky Moon - 1938
TTITLE16=Blue Ridge Mountain Blues-Birmingham Jail-Rootin' Tootin' Cow
TTITLE16=boy - 1940
TTITLE17=Red River Valley Blues - 1940
TTITLE18=When The White Azales Start Blooming - 1940
TTITLE19=My Ramblin' Days Are Through - 1940
TTITLE20=I Still Think Of You, Sweet Nellie Dean - 1940
TTITLE21=He Left The One Who Loved Him For Another - 1940
TTITLE22=When It's Roll-Call In The Bunk House - 1940
TTITLE23=My True And Earnest Prayer - 1940
TTITLE24=Beautiful Girl Of The Prairie - 1940
TTITLE25=It's All Over Now - 1940
EXTD=
EXTT0=
EXTT1=
EXTT2=
EXTT3=
EXTT4=
EXTT5=
EXTT6=
EXTT7=
EXTT8=
EXTT9=
EXTT10=
EXTT11=
EXTT12=
EXTT13=
EXTT14=
EXTT15=
EXTT16=
EXTT17=
EXTT18=
EXTT19=
EXTT20=
EXTT21=
EXTT22=
EXTT23=
EXTT24=
EXTT25=
PLAYORDER=
